<svg width="45" height="40" viewBox="0 0 45 40" fill="none" xmlns="http://www.w3.org/2000/svg">
<g clip-path="url(#clip0)">
<path d="M44.6336 5.0485C44.6074 5.02615 39.4309 0.545293 39.4309 0.545293C39.233 0.372949 39.0283 0.194824 38.6461 0.194824H17.806C17.1972 0.194824 16.702 0.644277 16.702 1.19678V4.27357L9.35686 5.41639C8.76812 5.51014 8.37218 6.02154 8.47417 6.55537L8.84696 8.52818C6.45953 9.2574 4.00841 10.0091 1.64215 10.7806C1.08302 10.9662 0.78959 11.5304 0.989109 12.041L5.69605 23.9172C5.79074 24.1562 6.03889 24.3051 6.30356 24.3051C6.37604 24.3051 6.44989 24.2939 6.52202 24.2703C6.85754 24.1608 7.03166 23.8251 6.91099 23.5206L2.27367 11.82C4.50299 11.0955 6.81166 10.3865 9.06791 9.69717L11.2861 21.4351L13.8386 34.9532C13.9307 35.4304 14.3929 35.7699 14.9145 35.7699C14.9735 35.7699 15.0334 35.7655 15.0935 35.7565L22.0066 34.6797L27.4086 33.8393L19.284 36.4898L12.8771 38.5807L7.90135 26.019C7.78076 25.7145 7.41108 25.5565 7.07547 25.6659C6.73996 25.7754 6.56583 26.111 6.68642 26.4155L11.7328 39.1557C11.8941 39.5563 12.3123 39.8054 12.7543 39.8054C12.8764 39.8054 13.0005 39.7863 13.1213 39.7462L19.7207 37.5926L34.7056 32.704L37.5683 32.2586H43.8923C44.501 32.2586 44.9962 31.8082 44.9962 31.2544V5.70873C44.9963 5.35803 44.7866 5.17912 44.6336 5.0485ZM42.9232 5.18725H39.6929L39.6128 5.18756C39.4582 5.1885 39.0961 5.19092 39.0042 5.10811C38.983 5.08896 38.9582 5.02506 38.9582 4.90639L38.9508 1.74896L42.9232 5.18725ZM43.7052 31.0866H17.9931V19.6673C17.9931 19.3437 17.704 19.0814 17.3475 19.0814C16.991 19.0814 16.702 19.3437 16.702 19.6673V31.2543C16.702 31.8079 17.1972 32.2585 17.806 32.2585H29.9262L21.7883 33.5246L15.0761 34.5701L12.5586 21.2369L9.78112 6.53928L16.7019 5.46248V16.9486C16.7019 17.2722 16.9909 17.5345 17.3474 17.5345C17.704 17.5345 17.993 17.2722 17.993 16.9486V1.36662H37.6587L37.6671 4.90771C37.6671 5.33693 37.811 5.68412 38.0946 5.93975C38.5304 6.33248 39.1464 6.35982 39.5288 6.35982C39.5617 6.35982 39.5929 6.35959 39.622 6.35943L43.7052 6.3592V31.0866Z" fill="#F9F6F6"/>
<path d="M21.1047 9.29297C21.1047 9.61656 21.3938 9.87891 21.7503 9.87891H40.2076C40.5641 9.87891 40.8532 9.61656 40.8532 9.29297C40.8532 8.96937 40.5641 8.70703 40.2076 8.70703H21.7503C21.3938 8.70703 21.1047 8.96937 21.1047 9.29297Z" fill="#F9F6F6"/>
<path d="M40.2076 12.8696H21.7503C21.3938 12.8696 21.1047 13.132 21.1047 13.4556C21.1047 13.7792 21.3938 14.0415 21.7503 14.0415H40.2076C40.5641 14.0415 40.8532 13.7792 40.8532 13.4556C40.8532 13.132 40.5641 12.8696 40.2076 12.8696Z" fill="#F9F6F6"/>
<path d="M40.2076 17.0322H21.7503C21.3938 17.0322 21.1047 17.2946 21.1047 17.6182C21.1047 17.9418 21.3938 18.2041 21.7503 18.2041H40.2076C40.5641 18.2041 40.8532 17.9418 40.8532 17.6182C40.8532 17.2946 40.5641 17.0322 40.2076 17.0322Z" fill="#F9F6F6"/>
<path d="M40.2076 21.1949H21.7503C21.3938 21.1949 21.1047 21.4573 21.1047 21.7809C21.1047 22.1045 21.3938 22.3668 21.7503 22.3668H40.2076C40.5641 22.3668 40.8532 22.1045 40.8532 21.7809C40.8532 21.4573 40.5641 21.1949 40.2076 21.1949Z" fill="#F9F6F6"/>
<path d="M40.2076 25.3577H21.7503C21.3938 25.3577 21.1047 25.62 21.1047 25.9436C21.1047 26.2672 21.3938 26.5295 21.7503 26.5295H40.2076C40.5641 26.5295 40.8532 26.2672 40.8532 25.9436C40.8532 25.62 40.5641 25.3577 40.2076 25.3577Z" fill="#F9F6F6"/>
</g>
<defs>
<clipPath id="clip0">
<rect width="44.0698" height="40" fill="white" transform="translate(0.926514)"/>
</clipPath>
</defs>
</svg>
